C:\Users\r0593348\3dpredictsim\Results\Batchsim_tmt_linear\Pog_s1_tmt_aCst_d05_k2000_ig24_pas_GRF.mot
nRows=15
nColumns=19

name C:\Users\r0593348\3dpredictsim\Results\Batchsim_tmt_linear\Pog_s1_tmt_aCst_d05_k2000_ig24_pas_GRF.mot
datacolumns 19
datarows 15
range 0.0000000000 0.1543489870
endheader
time 	ground_force_vx	ground_force_vy	ground_force_vz	ground_force_px	ground_force_py	ground_force_pz	1_ground_force_vx	1_ground_force_vy	1_ground_force_vz	1_ground_force_px	1_ground_force_py	1_ground_force_pz	ground_torque_x	ground_torque_y	ground_torque_z	1_ground_torque_x	1_ground_torque_y	1_ground_torque_z
        0.0000000000	     -105.6056689051	       96.1546962127	       41.9002536637	        0.1644771675	        0.0000000000	        0.0380946726	       93.3405988977	      468.0935797528	       -5.2300717387	       -0.3210297937	        0.0000000000	       -0.0355055544	        0.0000000000	        0.0000000000	        0.0000000000	        0.0000000000	        0.0000000000	        0.0000000000	
        0.0110249276	      -92.7504598134	      199.1391803134	       72.6038029550	        0.1711008065	        0.0000000000	        0.0363947478	       75.1085794142	      384.9968566457	      -10.0134964271	       -0.3168958407	        0.0000000000	       -0.0342366540	        0.0000000000	        0.0000000000	        0.0000000000	        0.0000000000	        0.0000000000	        0.0000000000	
        0.0220498553	      -45.8539684995	      358.8045115439	       16.0250287867	        0.1753448305	        0.0000000000	        0.0348391878	       54.7713486054	      298.1401513710	       -7.0679150370	       -0.3105123817	        0.0000000000	       -0.0316821284	        0.0000000000	        0.0000000000	        0.0000000000	        0.0000000000	        0.0000000000	        0.0000000000	
        0.0330747829	      -53.7633858064	      532.7375350150	       -2.7844134912	        0.1815519897	        0.0000000000	        0.0361705561	       25.3481713708	      196.4856924169	       -6.1567537899	       -0.2981065268	        0.0000000000	       -0.0260085324	        0.0000000000	        0.0000000000	        0.0000000000	        0.0000000000	        0.0000000000	        0.0000000000	
        0.0440997106	      -86.5641349948	      707.7814593243	      -10.1911738485	        0.1893271322	        0.0000000000	        0.0385248312	        6.6760851591	      137.5466922299	      -10.4899939637	       -0.2859398392	        0.0000000000	       -0.0197674895	        0.0000000000	        0.0000000000	        0.0000000000	        0.0000000000	        0.0000000000	        0.0000000000	
        0.0551246382	     -106.0058661152	      809.3782034505	      -13.0679114127	        0.1946081853	        0.0000000000	        0.0400109430	        1.2807497526	      107.3999905957	      -11.7411066269	       -0.2858834874	        0.0000000000	       -0.0200221065	        0.0000000000	        0.0000000000	        0.0000000000	        0.0000000000	        0.0000000000	        0.0000000000	
        0.0661495658	     -109.1094832466	      842.5398903614	      -13.8308874024	        0.1982641217	        0.0000000000	        0.0408904633	       -2.8471852897	       70.2746306661	      -10.9145378057	       -0.2854444448	        0.0000000000	       -0.0200866833	        0.0000000000	        0.0000000000	        0.0000000000	        0.0000000000	        0.0000000000	        0.0000000000	
        0.0771744935	     -103.8500747074	      836.5835105045	      -13.9936174686	        0.2013177232	        0.0000000000	        0.0413963362	       -8.6947765141	       28.9421750224	       -5.7635993448	       -0.2858383360	        0.0000000000	       -0.0198851677	        0.0000000000	        0.0000000000	        0.0000000000	        0.0000000000	        0.0000000000	        0.0000000000	
        0.0881994211	      -94.5832945037	      817.9171554349	      -14.2622560820	        0.2045270053	        0.0000000000	        0.0416369794	        0.1171228532	       -0.1165609956	        0.0033191309	        0.0000000000	        0.0000000000	        0.0000000000	        0.0000000000	        0.0000000000	        0.0000000000	        0.0000000000	        0.0000000000	        0.0000000000	
        0.0992243488	      -82.6537677017	      788.5055890654	      -14.9626772383	        0.2078646888	        0.0000000000	        0.0417310644	        0.0002096920	       -0.0001716333	       -0.0000108994	        0.0000000000	        0.0000000000	        0.0000000000	        0.0000000000	        0.0000000000	        0.0000000000	        0.0000000000	        0.0000000000	        0.0000000000	
        0.1102492764	      -71.9894924301	      756.4281308905	      -15.2757094220	        0.2118414128	        0.0000000000	        0.0417249318	        0.0000801515	       -0.0000569933	       -0.0000057062	        0.0000000000	        0.0000000000	        0.0000000000	        0.0000000000	        0.0000000000	        0.0000000000	        0.0000000000	        0.0000000000	        0.0000000000	
        0.1212742040	      -62.5454113585	      725.7254784942	      -15.4847694509	        0.2162948337	        0.0000000000	        0.0416153656	        0.0007309869	       -0.0004658634	       -0.0000587489	        0.0000000000	        0.0000000000	        0.0000000000	        0.0000000000	        0.0000000000	        0.0000000000	        0.0000000000	        0.0000000000	        0.0000000000	
        0.1322991317	      -53.1840517231	      694.7942964754	      -16.0155487304	        0.2206387477	        0.0000000000	        0.0415261128	        0.0059311715	       -0.0034645260	       -0.0005083579	        0.0000000000	        0.0000000000	        0.0000000000	        0.0000000000	        0.0000000000	        0.0000000000	        0.0000000000	        0.0000000000	        0.0000000000	
        0.1433240593	      -44.0846840572	      665.5564428880	      -16.5138520564	        0.2248801559	        0.0000000000	        0.0415026546	       -0.0300279235	        0.0163288398	        0.0026846979	        0.0000000000	        0.0000000000	        0.0000000000	        0.0000000000	        0.0000000000	        0.0000000000	        0.0000000000	        0.0000000000	        0.0000000000	
        0.1543489870	      -36.2008396419	      640.4223586191	      -16.9605013979	        0.2292046331	        0.0000000000	        0.0415288928	       -0.0205938671	        0.0105357533	        0.0019045575	        0.0000000000	        0.0000000000	        0.0000000000	        0.0000000000	        0.0000000000	        0.0000000000	        0.0000000000	        0.0000000000	        0.0000000000	
